<?xml version="1.0" standalone="no"?>
<!DOCTYPE svg PUBLIC "-//W3C//DTD SVG 20010904//EN"
 "http://www.w3.org/TR/2001/REC-SVG-20010904/DTD/svg10.dtd">
<svg version="1.0" xmlns="http://www.w3.org/2000/svg"
 width="512.000000pt" height="512.000000pt" viewBox="0 0 512.000000 512.000000"
 preserveAspectRatio="xMidYMid meet">
<metadata>
Created by potrace 1.16, written by Peter Selinger 2001-2019
</metadata>
<g transform="translate(0.000000,512.000000) scale(0.100000,-0.100000)"
fill="#000000" stroke="none">
<path d="M2559 4510 c-84 -10 -182 -35 -217 -56 -15 -8 -18 -12 -7 -9 113 37
341 46 491 20 185 -32 437 -140 580 -247 141 -105 292 -275 418 -471 50 -77
76 -104 76 -79 0 17 -98 171 -170 268 -222 297 -511 490 -826 553 -120 24
-256 32 -345 21z"/>
<path d="M2713 4453 c9 -2 23 -2 30 0 6 3 -1 5 -18 5 -16 0 -22 -2 -12 -5z"/>
<path d="M2788 4443 c6 -2 18 -2 25 0 6 3 1 5 -13 5 -14 0 -19 -2 -12 -5z"/>
<path d="M2848 4433 c7 -3 16 -2 19 1 4 3 -2 6 -13 5 -11 0 -14 -3 -6 -6z"/>
<path d="M2888 4423 c7 -3 16 -2 19 1 4 3 -2 6 -13 5 -11 0 -14 -3 -6 -6z"/>
<path d="M2928 4413 c7 -3 16 -2 19 1 4 3 -2 6 -13 5 -11 0 -14 -3 -6 -6z"/>
<path d="M3030 4380 c8 -5 20 -10 25 -10 6 0 3 5 -5 10 -8 5 -19 10 -25 10 -5
0 -3 -5 5 -10z"/>
<path d="M2471 4359 c-275 -33 -577 -197 -823 -446 -156 -158 -247 -282 -330
-448 -61 -122 -72 -158 -57 -183 10 -15 6 -50 -16 -178 -36 -209 -46 -544 -21
-729 75 -565 333 -949 781 -1161 162 -77 406 -123 575 -109 175 14 373 66 500
130 250 127 494 398 650 722 60 122 48 114 -20 -15 -84 -161 -179 -300 -273
-398 l-82 -85 -32 20 c-36 23 -66 97 -45 110 8 5 8 14 -2 33 -12 23 -12 26 1
21 13 -5 14 -3 3 17 -11 20 -10 22 4 17 21 -8 20 2 -1 25 -15 17 -13 21 34 70
250 266 380 757 318 1198 -50 349 -211 677 -430 871 -58 52 -45 31 43 -65 124
-137 217 -301 266 -470 58 -198 71 -295 71 -531 0 -190 -3 -236 -23 -332 -31
-153 -73 -279 -135 -401 -49 -96 -164 -272 -178 -272 -13 0 -20 33 -9 40 7 5
6 11 -5 20 -9 7 -21 22 -27 33 -9 17 -8 19 7 14 13 -6 13 -2 -4 19 -28 36 -26
41 11 36 l31 -5 -31 54 c-17 30 -39 81 -50 114 -12 33 -24 69 -28 79 -6 15 -4
17 6 11 10 -6 12 -4 7 8 -5 14 -2 16 19 11 l26 -7 -21 41 c-20 39 -61 174 -61
200 0 7 5 10 10 7 12 -8 13 17 1 31 -5 5 -12 19 -16 31 -4 17 -3 21 7 18 11
-4 12 12 7 82 -3 50 -2 91 3 94 5 3 6 22 3 43 -6 29 -4 36 9 36 13 0 15 4 7
19 -9 16 -18 62 -36 191 l-5 35 16 -37 c23 -54 36 -47 17 8 -13 39 -13 48 -2
55 11 8 6 17 -24 44 -33 28 -35 33 -15 29 22 -5 21 -4 -3 10 -31 18 -41 39
-32 64 10 26 23 32 76 32 l47 0 -37 39 c-42 45 -53 95 -18 85 18 -5 18 -4 -2
11 -26 19 -30 35 -8 35 9 0 0 14 -23 36 -30 29 -32 33 -12 24 24 -11 24 -10
-4 15 -15 14 -27 27 -25 29 2 2 13 8 24 14 12 7 14 12 6 12 -9 0 -5 11 13 35
15 19 33 50 40 68 19 45 28 139 16 157 -7 11 -10 7 -10 -18 0 -37 -37 -132
-52 -132 -5 0 -6 -4 -3 -10 3 -5 -11 -26 -31 -47 -23 -24 -33 -31 -29 -18 39
105 48 141 52 210 5 88 -20 238 -54 315 l-18 43 -42 -85 c-57 -114 -67 -168
-58 -298 11 -163 11 -179 -1 -184 -22 -8 -32 11 -39 75 -8 78 9 227 36 316 20
64 94 233 103 233 15 0 50 -81 71 -162 28 -114 40 -236 27 -300 -11 -56 -8
-61 11 -15 36 86 28 186 -34 395 -10 34 -23 71 -29 83 -11 20 -10 20 17 5 16
-8 69 -46 119 -84 292 -225 491 -564 568 -963 34 -174 50 -368 43 -531 -3 -80
-1 -138 4 -138 14 0 11 -68 -7 -160 -8 -45 -13 -84 -11 -87 16 -15 67 407 67
551 0 188 -41 439 -100 617 -38 116 -132 309 -198 409 -147 221 -354 392 -585
485 -144 58 -348 84 -506 64z m259 -53 c84 -14 237 -59 254 -76 14 -14 -35
-92 -54 -85 -104 41 -331 58 -435 32 -33 -8 -67 -17 -75 -21 -11 -5 -20 8 -34
54 l-19 60 -27 -38 c-32 -44 -82 -164 -101 -242 -17 -69 -17 -271 0 -323 7
-21 28 -58 47 -83 39 -50 41 -59 17 -50 -11 4 -8 -3 9 -18 30 -27 27 -34 -32
-59 -31 -14 -32 -15 -11 -16 l24 -1 -24 -26 c-21 -22 -21 -24 -4 -18 19 6 18
5 -2 -16 -19 -20 -20 -25 -8 -34 12 -9 12 -16 -2 -45 -9 -18 -27 -38 -39 -43
-34 -16 -19 -28 35 -28 26 0 52 -5 59 -12 20 -20 13 -55 -15 -77 -17 -12 -22
-20 -14 -21 10 0 5 -11 -15 -31 -27 -30 -27 -31 -6 -26 27 6 28 -4 2 -28 -11
-10 -20 -23 -20 -28 0 -6 9 -2 19 7 18 17 18 15 4 -61 -8 -43 -21 -89 -30
-101 -14 -23 -14 -24 7 -17 18 6 21 4 16 -12 -3 -10 -14 -56 -26 -103 -11 -46
-29 -98 -41 -114 l-22 -29 25 5 c24 4 24 4 16 -56 -7 -58 -17 -98 -34 -140 -6
-16 -4 -18 10 -13 14 6 16 3 10 -16 -12 -39 -33 -76 -67 -114 l-32 -36 27 6
c14 4 33 10 42 13 14 5 15 2 6 -22 -20 -54 -60 -112 -92 -138 -36 -28 -31 -31
21 -16 l35 10 -35 -37 c-19 -20 -28 -33 -21 -29 25 14 11 -17 -22 -50 -30 -30
-32 -34 -13 -34 19 0 17 -4 -13 -35 l-34 -35 33 0 33 0 -23 -21 -24 -20 23 6
c29 8 28 3 -10 -42 -18 -21 -25 -32 -15 -24 34 27 27 4 -12 -41 l-40 -45 27
-25 c27 -26 157 -114 199 -137 39 -20 43 -14 43 62 0 39 11 135 24 212 13 77
18 131 12 121 -19 -33 -77 -95 -120 -129 -46 -35 -44 -32 41 73 33 41 76 100
95 130 45 71 108 211 108 239 0 45 19 8 35 -67 15 -69 83 -238 92 -229 2 2 -6
33 -17 68 -14 42 -22 102 -26 174 -2 61 -11 155 -18 210 l-14 100 -2 -125 -2
-125 -24 90 c-13 50 -24 108 -25 130 l-1 40 -9 -40 c-4 -22 -8 -80 -8 -130 0
-115 -31 -206 -98 -285 -26 -31 -107 -90 -124 -90 -4 0 18 26 50 58 50 49 63
72 100 167 41 106 49 137 69 290 6 39 20 97 33 130 l24 60 5 -77 c5 -82 19
-117 21 -52 0 21 7 57 15 79 l14 40 -5 -49 c-5 -52 21 -269 35 -297 5 -9 4
-34 -1 -55 -16 -70 -10 -155 16 -237 19 -58 25 -101 26 -170 0 -61 7 -109 18
-142 l18 -50 8 116 c7 109 5 122 -19 206 l-27 90 22 58 21 57 25 -43 c14 -24
40 -86 58 -137 19 -51 47 -117 63 -146 17 -29 36 -72 43 -95 12 -40 13 -42 22
-20 9 24 9 24 44 -16 63 -70 121 -154 133 -190 6 -19 15 -35 20 -35 30 0 63
24 76 55 8 19 16 35 18 35 2 0 19 -24 38 -52 l33 -53 3 72 c2 57 -3 88 -24
150 -25 73 -104 237 -111 229 -2 -1 13 -37 32 -79 19 -42 35 -79 35 -83 0 -4
-16 15 -36 42 -21 27 -53 66 -72 86 -35 37 -35 38 -43 155 -4 65 -13 135 -19
157 -10 35 -9 40 12 63 20 22 23 36 26 123 4 99 -15 229 -44 297 -12 30 -11
34 8 44 24 13 26 10 65 -66 22 -44 26 -31 6 22 -6 16 -5 17 13 3 10 -8 7 -1
-8 16 -34 37 -34 41 -3 70 18 16 27 20 30 11 2 -6 9 -25 15 -40 5 -15 15 -69
20 -120 6 -51 13 -101 16 -112 2 -11 -7 1 -21 28 -14 26 -27 47 -30 47 -5 0
23 -74 56 -149 25 -57 18 -63 -15 -14 -14 20 -26 34 -26 30 0 -13 81 -171 99
-191 9 -11 10 -16 3 -12 -7 4 -28 31 -47 59 -19 28 -35 48 -35 44 0 -19 51
-206 65 -240 25 -61 15 -56 -16 8 -30 63 -37 60 -17 -7 6 -22 30 -60 52 -85
40 -46 40 -46 9 -29 -46 23 -85 76 -112 153 -14 37 -26 63 -28 57 -2 -5 6 -36
16 -67 24 -70 14 -66 -34 13 -20 33 -38 60 -41 60 -6 0 44 -109 66 -144 11
-17 36 -42 55 -56 32 -23 104 -144 92 -156 -2 -2 -21 23 -41 56 -21 33 -39 60
-42 60 -3 0 27 -62 65 -137 58 -113 73 -151 81 -212 6 -41 9 -76 6 -78 -2 -2
-20 47 -41 109 -33 102 -101 247 -127 273 -12 12 7 -34 61 -145 23 -49 49
-123 60 -173 22 -104 38 -125 105 -135 l48 -7 -64 -51 c-144 -117 -277 -183
-460 -228 -380 -95 -763 -13 -1073 229 -294 229 -458 556 -515 1025 -34 283
13 764 93 949 138 317 501 712 782 851 89 44 205 80 300 93 70 9 236 6 315 -7z
m-339 -193 c87 -191 124 -307 135 -430 8 -84 2 -112 -21 -93 -13 11 -14 10 -9
-4 3 -9 1 -16 -5 -16 -15 0 -19 29 -24 175 -4 115 -7 139 -34 207 -17 42 -43
98 -59 125 l-28 48 -21 -50 c-50 -115 -65 -282 -31 -358 9 -21 14 -42 11 -47
-4 -6 -1 -10 6 -10 7 0 10 -3 6 -6 -3 -4 1 -21 10 -38 15 -29 15 -30 0 -17 -9
7 -29 38 -44 70 -26 52 -28 65 -27 171 0 99 4 126 28 195 25 72 61 145 72 145
2 0 18 -30 35 -67z m399 26 c25 -5 68 -17 96 -25 l52 -16 -24 -55 c-30 -68
-49 -149 -65 -273 -11 -89 -28 -152 -29 -107 0 17 -1 17 -27 0 l-28 -18 23 32
c32 45 27 59 -9 21 -22 -24 -27 -27 -19 -10 14 28 -4 30 -23 1 l-15 -21 -7 22
c-7 21 -10 18 -36 -26 -32 -55 -39 -85 -14 -64 12 10 15 9 15 -6 0 -18 2 -17
18 2 16 20 53 44 67 44 4 0 -3 -9 -16 -20 l-24 -21 35 6 c31 6 33 5 17 -7 -15
-11 -10 -13 40 -11 57 2 58 2 28 -12 -16 -8 -39 -15 -50 -15 -11 0 -33 -8 -50
-16 -16 -8 -22 -12 -12 -9 10 3 42 5 70 6 38 0 47 3 32 9 -16 7 -11 9 20 9 22
0 49 -4 60 -9 16 -7 14 -9 -15 -9 -26 -1 -31 -4 -20 -11 8 -5 24 -10 36 -10
11 0 38 -9 60 -20 24 -13 30 -18 14 -15 -21 6 -20 4 8 -14 33 -21 37 -46 5
-34 -8 3 4 -13 28 -36 l44 -42 -42 20 c-23 12 -55 21 -71 21 -16 0 -51 7 -78
15 -65 20 -71 19 -43 -6 21 -18 21 -20 4 -14 -49 17 -95 17 -119 1 -31 -19
-36 -20 -36 -3 0 7 -7 22 -16 33 -15 18 -15 18 -9 -5 6 -20 5 -22 -10 -13 -10
5 -27 7 -39 5 -18 -4 -19 -3 -6 7 12 9 10 10 -9 4 -13 -3 -45 -8 -70 -9 -25
-2 -55 -6 -66 -11 -20 -7 -20 -7 -1 15 20 22 20 22 0 15 -10 -4 -41 -23 -68
-43 -38 -27 -48 -31 -43 -16 8 18 7 18 -13 0 -11 -10 -20 -14 -20 -8 0 16 52
59 100 84 25 12 72 26 105 30 l60 8 -65 -4 c-36 -1 -74 -6 -85 -10 -11 -3 0 5
25 19 25 14 56 26 70 27 18 1 13 4 -20 13 -37 10 -41 14 -24 19 13 5 40 0 70
-13 l49 -20 -30 25 c-21 18 -25 25 -14 25 9 0 20 8 24 18 6 15 8 15 26 -7 15
-18 19 -20 19 -6 0 9 14 45 31 80 17 36 29 70 26 77 -3 8 -10 2 -17 -14 -12
-25 -14 -26 -25 -11 -10 14 -13 9 -20 -28 -4 -24 -10 -36 -12 -26 -5 21 -23
23 -23 2 0 -8 -4 -15 -10 -15 -10 0 -20 32 -50 165 -12 50 -41 140 -65 200
-25 61 -45 114 -45 117 0 7 83 25 145 31 51 5 167 -2 225 -14z m-170 -780 c25
-6 52 -17 61 -24 13 -13 18 -13 35 0 40 30 46 21 39 -63 -7 -70 -5 -85 19
-142 27 -69 27 -83 -2 -57 -22 20 -45 22 -72 5 -16 -10 -24 -10 -40 0 -27 16
-50 15 -72 -5 -23 -21 -23 -10 2 55 11 29 20 74 19 100 l-1 47 -26 -80 c-15
-44 -44 -104 -64 -133 -52 -74 -59 -154 -23 -247 l8 -20 -23 20 -23 20 7 -25
c7 -23 6 -23 -13 5 -12 17 -21 26 -21 21 0 -5 -7 -2 -17 5 -24 20 -52 89 -54
129 l-1 35 -14 -30 -15 -30 6 42 c3 23 8 48 11 57 5 12 2 15 -10 10 -11 -4
-15 -2 -11 7 26 74 23 71 47 55 34 -24 61 -19 107 20 28 24 48 34 61 31 20 -5
20 -5 1 19 -10 13 -22 39 -25 58 -9 46 -50 85 -98 92 -22 4 -36 10 -31 15 19
18 166 24 233 8z m378 -8 c9 -6 1 -10 -25 -14 -48 -8 -79 -30 -99 -70 l-15
-32 26 33 c30 36 73 62 105 62 11 0 40 -10 63 -21 37 -19 40 -23 22 -30 -11
-4 -39 -5 -62 -2 -59 7 -107 -12 -143 -57 -16 -21 -30 -40 -30 -43 0 -3 12 -7
28 -9 15 -2 26 -7 24 -11 -3 -9 14 -28 50 -51 24 -16 29 -16 57 -1 17 8 31 21
31 28 0 13 42 -33 62 -68 10 -18 10 -19 -5 -7 -15 13 -16 9 -10 -36 4 -37 1
-56 -11 -73 -9 -13 -16 -35 -17 -49 0 -22 -1 -23 -8 -6 -6 16 -10 11 -19 -26
-6 -25 -21 -56 -33 -69 -11 -13 -17 -17 -13 -9 5 9 -1 8 -16 -5 l-22 -20 7 35
7 35 -24 -35 c-24 -35 -54 -55 -109 -70 l-30 -9 21 32 c82 124 89 211 27 312
-48 78 -67 136 -67 199 0 98 -2 96 114 96 55 0 107 -4 114 -9z m-560 -35 c30
-15 68 -53 61 -61 -3 -2 -23 2 -44 10 -22 8 -62 14 -88 15 -53 0 -60 15 -16
37 31 16 54 16 87 -1z m-8 -96 c0 -5 -7 -6 -17 -3 -12 5 -14 3 -8 -7 5 -8 3
-11 -5 -8 -26 8 -22 28 4 28 14 0 26 -4 26 -10z m550 6 c0 -11 -19 -15 -25 -6
-3 5 1 10 9 10 9 0 16 -2 16 -4z m40 -6 c0 -5 -4 -10 -9 -10 -6 0 -13 5 -16
10 -3 6 1 10 9 10 9 0 16 -4 16 -10z m-422 -203 c48 12 89 -62 66 -121 -9 -25
-70 -40 -103 -26 -50 20 -62 71 -34 141 16 41 16 41 32 20 11 -15 23 -19 39
-14z m252 -68 c0 -49 -18 -69 -68 -76 -57 -8 -82 14 -82 71 0 23 7 50 16 61
12 16 18 18 34 7 17 -11 24 -9 43 10 l22 23 17 -30 c9 -16 17 -46 18 -66z
m-206 -109 c36 9 62 9 88 2 19 -5 47 -7 62 -5 31 6 34 -7 6 -32 -11 -10 -17
-22 -14 -27 3 -4 2 -8 -3 -7 -20 3 -34 -2 -28 -11 3 -5 0 -7 -8 -4 -8 3 -18 1
-22 -5 -3 -6 -28 -11 -55 -11 -54 0 -98 29 -125 81 l-15 28 31 -11 c23 -8 45
-7 83 2z m446 -56 c1 -16 1 -56 1 -89 l-2 -60 -18 55 c-9 30 -22 64 -29 75 -8
17 -6 28 11 54 19 30 21 32 28 14 4 -11 8 -33 9 -49z m-785 -43 c-17 -35 -11
-39 18 -13 19 15 20 16 14 0 -13 -36 -25 -95 -31 -148 l-6 -55 24 62 c25 62
56 117 62 110 2 -2 -5 -30 -16 -62 -11 -31 -18 -67 -15 -79 3 -11 0 -37 -5
-56 -9 -32 -9 -31 -5 15 4 43 3 47 -6 25 -7 -14 -15 -83 -18 -155 -7 -131 -7
-131 -25 -15 -2 14 -4 -15 -5 -65 l-3 -90 -15 60 c-14 58 -14 142 2 290 l5 50
-20 -65 -19 -65 5 65 c6 68 14 100 47 190 11 30 22 50 24 43 2 -6 -3 -25 -12
-42z m604 -97 c17 -37 8 -39 -13 -4 -9 17 -13 30 -8 30 5 0 14 -12 21 -26z
m-27 -39 c11 12 46 -51 57 -103 15 -70 15 -145 0 -136 -8 4 -9 0 -4 -15 7 -24
-12 -94 -25 -86 -4 3 -11 21 -14 40 -4 19 -13 49 -21 67 l-15 33 6 -50 c4 -37
-1 -80 -20 -158 -14 -58 -29 -144 -33 -189 l-7 -83 -7 50 c-12 83 -9 196 6
265 23 103 17 102 -20 -4 -41 -115 -43 -162 -15 -265 12 -41 20 -93 18 -115
l-3 -41 -30 80 c-25 67 -30 95 -30 170 0 50 6 124 14 165 15 87 10 170 -19
280 -10 41 -18 76 -16 77 6 7 48 -100 63 -164 9 -37 19 -61 21 -53 8 22 -19
152 -43 213 -13 31 -22 57 -20 57 3 0 18 -24 35 -52 24 -42 29 -46 24 -23 -4
17 -11 40 -15 53 -5 12 -7 22 -5 22 6 0 67 -91 97 -146 33 -61 59 -102 59 -94
0 3 -20 51 -44 107 -24 55 -47 112 -51 125 -7 22 -7 22 22 -5 16 -15 32 -25
35 -22z m-322 -71 c-5 -38 -10 -91 -11 -119 0 -27 -7 -72 -14 -100 -14 -49
-14 -47 -11 65 2 77 9 134 21 172 10 32 20 56 22 54 2 -1 -1 -34 -7 -72z m108
-132 c-4 -119 -2 -159 5 -146 6 11 13 80 17 154 l5 135 18 -90 c18 -93 21
-208 6 -260 -5 -21 -7 -10 -3 35 l4 65 -16 -40 c-9 -22 -19 -74 -22 -115 l-7
-75 -28 56 c-15 30 -30 80 -34 109 l-6 55 -13 -60 c-7 -33 -24 -85 -38 -115
l-25 -55 0 61 c-1 61 20 201 40 279 l11 40 21 -55 c22 -60 35 -55 18 7 -13 45
-13 150 -1 178 7 16 9 10 10 -25 l2 -45 10 54 c8 45 12 52 20 36 7 -11 9 -79
6 -183z m-161 51 c-2 -16 -4 -5 -4 22 0 28 2 40 4 28 2 -13 2 -35 0 -50z m423
-442 c-1 -89 -2 -94 -15 -71 -26 44 -55 151 -55 199 0 25 5 64 11 86 l12 40
23 -79 c18 -61 24 -103 24 -175z m-640 150 c0 -34 -114 -201 -127 -187 -3 2 7
26 20 53 20 40 55 130 74 192 5 18 33 -32 33 -58z m-89 2 c-5 -10 -17 -27 -26
-38 -16 -19 -17 -19 -3 5 26 46 29 50 34 50 3 0 0 -8 -5 -17z m525 -226 c14
-43 23 -81 20 -84 -9 -10 -55 98 -61 147 -9 62 7 37 41 -63z m174 -24 c12 -18
42 -46 66 -63 25 -17 62 -57 84 -89 21 -32 48 -61 59 -64 21 -5 41 -61 40
-112 -1 -28 -2 -27 -24 20 -13 28 -24 43 -25 35 0 -8 -9 1 -19 20 -11 19 -38
55 -61 80 -44 48 -44 45 7 -39 48 -79 41 -84 -22 -16 l-56 60 45 -69 c50 -76
61 -111 51 -164 l-7 -36 -23 58 c-25 62 -42 87 -31 46 6 -21 5 -22 -4 -7 -6 9
-9 21 -6 26 4 5 -17 53 -45 108 -53 103 -56 95 -8 -21 16 -38 28 -70 26 -72
-6 -6 -105 130 -116 159 -14 37 -14 114 1 194 l12 64 16 -44 c9 -24 27 -57 40
-74z m-739 -71 c-5 -10 -18 -25 -28 -33 -12 -10 -11 -5 6 19 24 35 38 43 22
14z m20 -109 c-5 -10 -37 -45 -72 -78 -52 -50 -59 -55 -43 -27 18 32 106 122
119 122 3 0 1 -8 -4 -17z m-37 -126 c-15 -46 -34 -71 -34 -46 0 16 41 101 46
96 2 -2 -3 -25 -12 -50z m33 -29 c-3 -7 -5 -2 -5 12 0 14 2 19 5 13 2 -7 2
-19 0 -25z"/>
<path d="M1727 3807 c-181 -183 -301 -418 -365 -717 -68 -314 -52 -742 39
-1054 92 -313 307 -580 574 -713 255 -127 615 -149 900 -56 78 25 175 69 175
78 0 3 -24 -6 -53 -19 -154 -68 -309 -99 -497 -98 -349 0 -642 131 -856 382
-281 329 -388 992 -249 1542 66 258 180 471 350 656 42 45 74 82 71 82 -4 0
-43 -37 -89 -83z"/>
<path d="M2078 3802 c-81 -65 -159 -146 -226 -237 -176 -239 -250 -487 -283
-957 -26 -369 29 -624 184 -852 64 -94 212 -241 307 -305 165 -110 309 -155
495 -154 141 0 265 28 386 87 79 39 74 38 -36 -3 -65 -24 -81 -26 -240 -26
-146 0 -182 3 -255 23 -203 55 -327 127 -470 271 -238 239 -318 433 -336 816
-24 494 150 988 457 1298 53 53 95 97 93 97 -1 0 -36 -26 -76 -58z"/>
<path d="M3023 2420 c-1 -80 -4 -93 -42 -175 -2 -5 3 -4 12 4 36 29 58 164 37
231 -5 16 -7 -5 -7 -60z"/>
<path d="M2357 2055 c-3 -11 -10 -45 -16 -75 -5 -30 -27 -109 -49 -175 -31
-92 -42 -145 -49 -227 l-8 -108 40 -16 c22 -9 51 -20 65 -24 l25 -7 1 126 2
126 -26 -62 c-29 -70 -39 -76 -22 -13 6 23 9 44 6 47 -7 7 -36 -94 -37 -131
-1 -20 -5 -11 -10 24 -12 84 8 198 54 309 l13 31 11 -43 c8 -28 32 -65 67
-105 60 -67 62 -73 70 -172 3 -36 8 -74 12 -84 5 -13 4 -17 -4 -12 -10 6 -23
43 -51 145 -6 21 -10 17 -29 -35 -33 -91 -43 -147 -29 -156 22 -14 27 -8 27
27 0 19 5 35 11 35 8 0 10 -12 6 -35 -5 -33 -4 -35 31 -45 20 -5 58 -10 85
-10 l47 0 -37 57 c-36 53 -38 60 -38 137 0 45 4 115 8 156 6 65 5 69 -4 30
-12 -52 -29 -76 -29 -42 0 12 -15 62 -34 110 -19 48 -36 96 -39 107 -4 18 -5
18 -6 -2 0 -12 11 -59 25 -103 14 -45 24 -84 21 -86 -2 -2 -21 28 -41 68 -26
53 -40 97 -49 163 -8 55 -16 82 -20 70z"/>
<path d="M2637 1944 c3 -46 0 -90 -11 -130 -26 -99 -21 -149 24 -262 22 -54
40 -106 40 -115 0 -30 11 -45 31 -40 10 3 19 7 19 10 0 3 -16 41 -36 86 -19
45 -38 104 -41 132 l-5 50 28 -45 c41 -69 71 -132 84 -179 6 -25 16 -41 23
-38 18 6 10 45 -25 117 -28 57 -32 74 -31 145 0 44 -1 67 -4 50 -8 -61 -14
-61 -45 0 -28 54 -31 70 -32 155 -1 52 -6 104 -12 114 -9 15 -11 4 -7 -50z
m20 -256 c-3 -8 -6 -5 -6 6 -1 11 2 17 5 13 3 -3 4 -12 1 -19z"/>
<path d="M2555 1570 c6 -66 61 -180 87 -180 17 0 19 4 13 27 -4 16 -25 55 -47
87 -22 33 -45 71 -49 85 -7 20 -8 15 -4 -19z"/>
<path d="M2806 1541 c6 -49 10 -77 13 -109 1 -10 10 -12 34 -7 17 4 36 11 41
15 8 8 -29 150 -40 150 -3 0 -3 -18 1 -40 4 -21 3 -49 0 -62 -6 -18 -11 -12
-25 36 -24 76 -33 83 -24 17z"/>
<path d="M2907 1490 c7 -40 10 -46 20 -37 3 4 -1 22 -10 40 l-16 32 6 -35z"/>
<path d="M2818 3503 c6 -2 18 -2 25 0 6 3 1 5 -13 5 -14 0 -19 -2 -12 -5z"/>
<path d="M2811 3461 c25 -5 61 -16 78 -26 41 -21 52 -13 16 11 -16 10 -51 19
-83 20 l-57 3 46 -8z"/>
<path d="M2907 3089 c7 -7 15 -10 18 -7 3 3 -2 9 -12 12 -14 6 -15 5 -6 -5z"/>
<path d="M2881 2595 c0 -5 6 -21 14 -35 8 -14 14 -20 14 -15 0 6 -6 21 -14 35
-8 14 -14 21 -14 15z"/>
<path d="M3001 1610 c14 -31 19 -36 19 -24 0 6 -7 19 -16 30 -14 18 -14 18 -3
-6z"/>
<path d="M3370 4166 c0 -2 8 -10 18 -17 15 -13 16 -12 3 4 -13 16 -21 21 -21
13z"/>
<path d="M3502 4042 c213 -230 349 -498 413 -818 50 -244 74 -584 56 -799 -5
-66 -7 -122 -5 -124 36 -37 51 445 20 664 -41 287 -83 446 -165 620 -88 186
-216 370 -342 490 -49 46 -43 39 23 -33z"/>
<path d="M1494 3897 c-129 -132 -204 -237 -290 -402 -64 -121 -118 -261 -109
-283 10 -26 29 3 73 108 79 186 194 378 321 533 97 120 133 167 128 167 -2 0
-58 -55 -123 -123z"/>
<path d="M3279 3878 c111 -114 187 -223 260 -371 154 -314 201 -607 166 -1037
l-5 -55 12 40 c8 25 12 125 12 275 1 206 -2 249 -22 348 -61 305 -191 575
-364 757 -44 47 -95 95 -112 108 -17 12 7 -17 53 -65z"/>
<path d="M3587 3838 c139 -175 233 -407 284 -699 23 -133 42 -409 35 -499 -5
-61 -4 -62 5 -20 14 61 3 302 -22 471 -27 192 -78 367 -147 513 -53 109 -154
261 -198 297 -10 8 10 -21 43 -63z"/>
<path d="M1101 3089 c-64 -105 -91 -473 -56 -746 75 -574 380 -1035 839 -1265
199 -100 375 -142 596 -142 222 1 377 37 585 139 138 67 243 145 366 272 155
160 271 329 370 538 66 140 62 147 -7 10 -175 -347 -405 -581 -732 -744 -184
-92 -363 -134 -567 -134 -164 0 -279 22 -443 83 -453 170 -795 618 -894 1173
-31 169 -32 514 -4 691 14 84 17 123 9 135 -18 28 -41 24 -62 -10z"/>
<path d="M3912 2430 c0 -14 2 -19 5 -12 2 6 2 18 0 25 -3 6 -5 1 -5 -13z"/>
<path d="M3902 2370 c0 -14 2 -19 5 -12 2 6 2 18 0 25 -3 6 -5 1 -5 -13z"/>
<path d="M3776 2085 c-9 -26 -7 -32 5 -12 6 10 9 21 6 23 -2 3 -7 -2 -11 -11z"/>
<path d="M3856 2035 c-9 -26 -7 -32 5 -12 6 10 9 21 6 23 -2 3 -7 -2 -11 -11z"/>
</g>
</svg>